<svg xmlns="http://www.w3.org/2000/svg" viewBox="0 0 116.31 51.91"><defs><style>.cls-1{fill:#FFFFFF;}</style></defs><g id="Vrstva_2" data-name="Vrstva 2"><g id="Vrstva_1-2" data-name="Vrstva 1"><path class="cls-1" d="M7,42.49a3.92,3.92,0,0,0-1.18-.19,2.14,2.14,0,0,0-1.33.38,1.25,1.25,0,0,0-.49,1,1.22,1.22,0,0,0,.58,1,7.15,7.15,0,0,0,1.64.8,7.81,7.81,0,0,1,1.35.62,2.7,2.7,0,0,1,.91.93,3.1,3.1,0,0,1,0,3,2.9,2.9,0,0,1-1.18,1.06,4,4,0,0,1-1.78.38,5.43,5.43,0,0,1-1.84-.31,6.23,6.23,0,0,1-1.55-.77l.61-1.1A5.08,5.08,0,0,0,3.93,50a4,4,0,0,0,1.38.28,2.5,2.5,0,0,0,1.44-.43,1.43,1.43,0,0,0,.62-1.27,1.37,1.37,0,0,0-.52-1.13,5.55,5.55,0,0,0-1.46-.79A12.09,12.09,0,0,1,4,46.06a3.24,3.24,0,0,1-1-.86,2.25,2.25,0,0,1-.41-1.37,2.47,2.47,0,0,1,.85-2,3.34,3.34,0,0,1,2.19-.79,6.06,6.06,0,0,1,3.09.82L8.16,43A5.92,5.92,0,0,0,7,42.49Z"/><path class="cls-1" d="M12.5,41.13v9h5.24v1.34H11.12V41.13Z"/><path class="cls-1" d="M21.35,41.13v10.3H20V41.13Z"/><path class="cls-1" d="M24.31,41.13h2.82a6,6,0,0,1,3.18.77,4.61,4.61,0,0,1,1.84,2,5.86,5.86,0,0,1,.57,2.54A5,5,0,0,1,32,49a4.82,4.82,0,0,1-1.87,1.77,5.35,5.35,0,0,1-2.53.62H24.31Zm3.05,9a4.46,4.46,0,0,0,2-.45,3.26,3.26,0,0,0,1.4-1.3,3.91,3.91,0,0,0,.51-2,4,4,0,0,0-.53-2.08,3.52,3.52,0,0,0-1.4-1.31,4.05,4.05,0,0,0-1.89-.45H25.69v7.63Z"/><path class="cls-1" d="M41.73,41.13v1.33H36.42v3.13h4.74v1.32H36.42v3.18h5.51v1.34H35V41.13Z"/><path class="cls-1" d="M55.13,51.26a4.7,4.7,0,0,1-1.66.28,5.39,5.39,0,0,1-2.78-.7A4.78,4.78,0,0,1,48.84,49a5.31,5.31,0,0,1-.65-2.6,5.64,5.64,0,0,1,.66-2.74,4.83,4.83,0,0,1,1.81-1.91A5.06,5.06,0,0,1,53.29,41a5.61,5.61,0,0,1,1.62.23,5.37,5.37,0,0,1,1.35.6l-.55,1.29a4.24,4.24,0,0,0-2.38-.8,3.43,3.43,0,0,0-1.84.53,3.79,3.79,0,0,0-1.35,1.43,4,4,0,0,0-.51,2,4.44,4.44,0,0,0,.46,2,3.45,3.45,0,0,0,1.33,1.4,4.14,4.14,0,0,0,4.39-.28l.58,1.24A5.71,5.71,0,0,1,55.13,51.26Z"/><path class="cls-1" d="M64.38,51.43,62,47.63H60.09v3.79H58.71V41.13h2.75a4.51,4.51,0,0,1,1.88.38,2.92,2.92,0,0,1,1.29,1.08,3,3,0,0,1,.47,1.73,3.68,3.68,0,0,1-.42,1.75,2.67,2.67,0,0,1-1.29,1.21L66,51.43Zm-1.19-5.71a2,2,0,0,0,.49-1.34,2.11,2.11,0,0,0-.21-.9,1.81,1.81,0,0,0-.65-.73,2.08,2.08,0,0,0-1.13-.29h-1.6V46.3h1.5A2,2,0,0,0,63.19,45.72Z"/><path class="cls-1" d="M74.79,41.13v1.33h-5.3v3.13h4.74v1.32H69.49v3.18H75v1.34H68.11V41.13Z"/><path class="cls-1" d="M82.79,48.72h-4l-1.1,2.71H76.37l4.5-10.72H81l4.49,10.72H83.86Zm-.47-1.19-1.46-3.76-1.53,3.76Z"/><path class="cls-1" d="M92.64,41.13v1.33H89.88v9H88.5v-9H85.81V41.13Z"/><path class="cls-1" d="M96.23,41.13v10.3H94.85V41.13Z"/><path class="cls-1" d="M107.37,41.13l-4.54,10.78L98.29,41.13h1.64l3,7.42,2.86-7.42Z"/><path class="cls-1" d="M116.11,41.13v1.33H110.8v3.13h4.74v1.32H110.8v3.18h5.51v1.34h-6.89V41.13Z"/><path class="cls-1" d="M107.3,7.3a8.91,8.91,0,0,1,0,6.81l8.89-3.4Z"/><path id="v3" class="cls-1" d="M106.64,10.33c0,11.59-31.8,18.51-31.8,18.51h0C40.71,37.91,9.23,19.26,9.23,19.26,34.59,28.64,52,29,63.83,25.56c12.51-4.71,17.76-13,19.48-16.5a17.32,17.32,0,0,1,3.41-4.83C91.61-.51,96.3,0,96.3,0S106.65.53,106.64,10.33Z"/><path class="cls-1" d="M83.58,6.67C42-3.9,0,22,0,22,28.51,7.29,64.84,5.15,82.44,8.21,82.8,7.68,83.22,7.12,83.58,6.67Z"/><path class="cls-1" d="M86.5,9a89.49,89.49,0,0,1,16.18,4.82,96.24,96.24,0,0,0-15.11-6Z"/></g></g></svg>